<svg width="20" height="20" viewBox="0 0 20 20" fill="none" xmlns="http://www.w3.org/2000/svg">
<path fill-rule="evenodd" clip-rule="evenodd" d="M20 10C20 15.5228 15.5228 20 10 20C4.47715 20 0 15.5228 0 10C0 4.47715 4.47715 0 10 0C15.5228 0 20 4.47715 20 10ZM3 4.58H3.58C3.79333 5.04667 3.95333 5.59333 4.06 6.22H15.92C15.9867 5.91333 16.06 5.62 16.14 5.34C16.2333 5.06 16.3267 4.80667 16.42 4.58H17V6.62C17 6.84667 17.0067 7.11333 17.02 7.42C17.0333 7.72667 17.0467 8.04 17.06 8.36C17.0867 8.69333 17.1067 9.00667 17.12 9.3C17.1467 9.60667 17.16 9.86 17.16 10.06C17.16 12.3267 16.5533 14.0667 15.34 15.28C14.1267 16.5067 12.4067 17.12 10.18 17.12C9.12667 17.12 8.14667 16.9667 7.24 16.66C6.34667 16.3667 5.57333 15.9133 4.92 15.3C4.26667 14.6867 3.75333 13.9067 3.38 12.96C3.00667 12.0267 2.82 10.92 2.82 9.64C2.82 9.44 2.83333 9.21333 2.86 8.96C2.87333 8.70667 2.89333 8.44 2.92 8.16C2.93333 7.88 2.95333 7.59333 2.98 7.3C2.99333 7.02 3 6.75333 3 6.5V4.58ZM16.12 9.78C16.12 9.43333 16.1133 9.1 16.1 8.78C16.1 8.46 16.08 8.20667 16.04 8.02H3.92C3.90667 8.08667 3.89333 8.20667 3.88 8.38C3.88 8.55333 3.87333 8.74 3.86 8.94V9.5V9.9C3.86 10.82 4.03333 11.6 4.38 12.24C4.72667 12.88 5.18667 13.4 5.76 13.8C6.34667 14.2133 7.02 14.5133 7.78 14.7C8.54 14.8867 9.34 14.98 10.18 14.98C10.8333 14.98 11.5067 14.8867 12.2 14.7C12.9067 14.5267 13.5467 14.2333 14.12 13.82C14.7067 13.42 15.1867 12.8867 15.56 12.22C15.9333 11.5533 16.12 10.74 16.12 9.78ZM12.1778 10.8271V9.93908L7.97775 9.21908V10.1011V10.5751V10.8691C7.97775 11.2171 8.02575 11.5371 8.12175 11.8291C8.22175 12.1251 8.36175 12.3871 8.54175 12.6151C8.72575 12.8431 8.94575 13.0311 9.20175 13.1791C9.46175 13.3271 9.75375 13.4251 10.0778 13.4731C10.3938 13.5211 10.6798 13.5091 10.9358 13.4371C11.1958 13.3651 11.4178 13.2411 11.6018 13.0651C11.7858 12.8931 11.9278 12.6751 12.0278 12.4111C12.1278 12.1471 12.1778 11.8471 12.1778 11.5111V11.2951V10.8271ZM11.0438 11.1007L9.11775 10.7705V10.9351C9.11775 11.1191 9.14775 11.2931 9.20775 11.4571C9.26775 11.6251 9.36775 11.7671 9.50775 11.8831C9.64775 12.0031 9.83775 12.0811 10.0778 12.1171C10.2538 12.1411 10.4018 12.1391 10.5218 12.1111C10.6458 12.0831 10.7458 12.0331 10.8218 11.9611C10.8978 11.8891 10.9538 11.7991 10.9898 11.6911C11.0258 11.5831 11.0438 11.4631 11.0438 11.3311V11.1007Z" fill="#7D4BDE"/>
</svg>
